<svg xmlns="http://www.w3.org/2000/svg" xmlns:svgjs="http://svgjs.com/svgjs" xmlns:xlink="http://www.w3.org/1999/xlink" width="288" height="288"><svg xmlns="http://www.w3.org/2000/svg" width="288" height="288" viewBox="0 0 32 32"><defs><filter id="a" width="1.24" height="1.24" x="-.12" y="-.12" color-interpolation-filters="sRGB"><feGaussianBlur stdDeviation="1.1"/></filter></defs><path style="font-feature-settings:normal;font-variant-alternates:normal;font-variant-caps:normal;font-variant-ligatures:normal;font-variant-numeric:normal;font-variant-position:normal;isolation:auto;mix-blend-mode:normal;shape-padding:0;text-decoration-color:#000;text-decoration-line:none;text-decoration-style:solid;text-indent:0;text-orientation:mixed;text-transform:none;white-space:normal" fill="#3c3836" d="m16.027 5a1.0001 1.0001 0 0 0-0.82812 0.40039l-3 4a1.0001 1.0001 0 0 0 0.80078 1.5996h6a1.0001 1.0001 0 0 0 0.80078-1.5996l-3-4a1.0001 1.0001 0 0 0-0.77344-0.40039zm-0.027344 2.668 1 1.332h-2zm-6.0293 4.332a1.0001 1.0001 0 0 0-0.57031 0.19922l-4 3a1.0001 1.0001 0 0 0 0 1.6016l4 3a1.0001 1.0001 0 0 0 1.5996-0.80078v-6a1.0001 1.0001 0 0 0-1.0293-1zm11.973 2e-3a1.0001 1.0001 0 0 0-0.94336 0.998v6a1.0001 1.0001 0 0 0 1.5996 0.80078l4-3a1.0001 1.0001 0 0 0 0-1.6016l-4-3a1.0001 1.0001 0 0 0-0.65625-0.19727zm-5.9434 0.998c-1.6347 0-2.9609 1.3262-2.9609 2.9609s1.3262 2.959 2.9609 2.959 2.9609-1.3242 2.9609-2.959-1.3262-2.9609-2.9609-2.9609zm-7 2v2l-1.332-1zm14 0 1.332 1-1.332 1zm-10 6a1.0001 1.0001 0 0 0-0.80078 1.5996l3 4a1.0001 1.0001 0 0 0 1.6016 0l3-4a1.0001 1.0001 0 0 0-0.80078-1.5996zm2 2h2l-1 1.332z" class="color000 svgShape" color="#000" filter="url(#a)" opacity=".35"/><path style="font-feature-settings:normal;font-variant-alternates:normal;font-variant-caps:normal;font-variant-ligatures:normal;font-variant-numeric:normal;font-variant-position:normal;isolation:auto;mix-blend-mode:normal;shape-padding:0;text-decoration-color:#000;text-decoration-line:none;text-decoration-style:solid;text-indent:0;text-orientation:mixed;text-transform:none;white-space:normal" fill="#ebdbb2" d="m16.027 4a1.0001 1.0001 0 0 0-0.82812 0.40039l-3 4a1.0001 1.0001 0 0 0 0.80078 1.5996h6a1.0001 1.0001 0 0 0 0.80078-1.5996l-3-4a1.0001 1.0001 0 0 0-0.77344-0.40039zm-0.027344 2.668 1 1.332h-2zm-6.0293 4.332a1.0001 1.0001 0 0 0-0.57031 0.19922l-4 3a1.0001 1.0001 0 0 0 0 1.6016l4 3a1.0001 1.0001 0 0 0 1.5996-0.80078v-6a1.0001 1.0001 0 0 0-1.0293-1zm11.973 2e-3a1.0001 1.0001 0 0 0-0.94336 0.998v6a1.0001 1.0001 0 0 0 1.5996 0.80078l4-3a1.0001 1.0001 0 0 0 0-1.6016l-4-3a1.0001 1.0001 0 0 0-0.65625-0.19727zm-12.943 2.998v2l-1.332-1zm14 0 1.332 1-1.332 1zm-10 6a1.0001 1.0001 0 0 0-0.80078 1.5996l3 4a1.0001 1.0001 0 0 0 1.6016 0l3-4a1.0001 1.0001 0 0 0-0.80078-1.5996zm2 2h2l-1 1.332z" class="colorfff svgShape" color="#000"/><path fill="#3c3836" d="m16 5-3 4h6l-3-4zm-6 7-4 3 4 3v-6zm12 0v6l4-3-4-3zm-9 9 3 4 3-4h-6z" class="color151515 svgShape"/><path fill="#ebdbb2" d="m16 12c-1.6347 0-2.96 1.3253-2.96 2.96s1.3253 2.96 2.96 2.96 2.96-1.3253 2.96-2.96-1.3253-2.96-2.96-2.96z" class="colorfff svgShape"/><path fill="#fe8019" d="m16 12.96c-1.1046 0-2 0.89544-2 2s0.89544 2 2 2 2-0.89544 2-2-0.89544-2-2-2z" class="colorf60 svgShape"/></svg></svg>