<svg xmlns="http://www.w3.org/2000/svg" xmlns:svgjs="http://svgjs.com/svgjs" xmlns:xlink="http://www.w3.org/1999/xlink" width="288" height="288"><svg xmlns="http://www.w3.org/2000/svg" width="288" height="288" viewBox="0 0 32 32"><defs><filter id="a" width="1.248" height="2.116" x="-.124" y="-.558" color-interpolation-filters="sRGB"><feGaussianBlur stdDeviation=".93"/></filter><filter id="b" width="1.318" height="1.314" x="-.159" y="-.157" color-interpolation-filters="sRGB"><feGaussianBlur stdDeviation=".93"/></filter></defs><path style="font-feature-settings:normal;font-variant-alternates:normal;font-variant-caps:normal;font-variant-ligatures:normal;font-variant-numeric:normal;font-variant-position:normal;isolation:auto;mix-blend-mode:normal;shape-padding:0;text-decoration-color:#000;text-decoration-line:none;text-decoration-style:solid;text-indent:0;text-orientation:mixed;text-transform:none;white-space:normal" fill="#3c3836" d="m25 27a1.0001 1.0001 0 0 0-1-1h-16a1.0001 1.0001 0 0 0-1 1v2a1.0001 1.0001 0 0 0 1 1h16a1.0001 1.0001 0 0 0 1-1z" class="color000 svgShape" color="#000" filter="url(#a)" opacity=".35" paint-order="stroke fill markers"/><path style="font-feature-settings:normal;font-variant-alternates:normal;font-variant-caps:normal;font-variant-ligatures:normal;font-variant-numeric:normal;font-variant-position:normal;isolation:auto;mix-blend-mode:normal;shape-padding:0;text-decoration-color:#000;text-decoration-line:none;text-decoration-style:solid;text-indent:0;text-orientation:mixed;text-transform:none;white-space:normal" fill="#3c3836" d="m15 10.787a1.0001 1.0001 0 0 0-1 1.002l0.01563 6.0391-1.9219-1.9219a1.0001 1.0001 0 0 0-1.4141 0l-1.3867 1.3848a1.0001 1.0001 0 0 0 0 1.416l6 6a1.0001 1.0001 0 0 0 1.4121 2e-3l6.0391-6a1.0001 1.0001 0 0 0 0.0039-1.416l-1.3867-1.3868a1.0001 1.0001 0 0 0-1.4141 0l-1.9316 1.9336-0.015625-6.0547a1.0001 1.0001 0 0 0-1-0.99805zm1.0215 9.4648a1.0001 1.0001 0 0 0 1.4258 0.90039l-1.4453 1.4355-1.4668-1.4668a1.0001 1.0001 0 0 0 1.4863-0.86914z" class="color000 svgShape" color="#000" enable-background="new" filter="url(#b)" opacity=".35"/><path style="font-feature-settings:normal;font-variant-alternates:normal;font-variant-caps:normal;font-variant-ligatures:normal;font-variant-numeric:normal;font-variant-position:normal;isolation:auto;mix-blend-mode:normal;shape-padding:0;text-decoration-color:#000;text-decoration-line:none;text-decoration-style:solid;text-indent:0;text-orientation:mixed;text-transform:none;white-space:normal" fill="#ebdbb2" d="m25 26a1.0001 1.0001 0 0 0-1-1h-16a1.0001 1.0001 0 0 0-1 1v2a1.0001 1.0001 0 0 0 1 1h16a1.0001 1.0001 0 0 0 1-1z" class="colorfff svgShape" color="#000" paint-order="stroke fill markers"/><rect width="2" height="16" x="26" y="-24" fill="#3c3836" class="color151515 svgShape" paint-order="stroke fill markers" transform="rotate(90)"/><path style="font-feature-settings:normal;font-variant-alternates:normal;font-variant-caps:normal;font-variant-ligatures:normal;font-variant-numeric:normal;font-variant-position:normal;isolation:auto;mix-blend-mode:normal;shape-padding:0;text-decoration-color:#000;text-decoration-line:none;text-decoration-style:solid;text-indent:0;text-orientation:mixed;text-transform:none;white-space:normal" fill="#ebdbb2" d="m15 9.7871a1.0001 1.0001 0 0 0-1 1.002l0.01563 6.0391-1.9219-1.9219a1.0001 1.0001 0 0 0-1.4141 0l-1.3867 1.3848a1.0001 1.0001 0 0 0 0 1.416l6 6a1.0001 1.0001 0 0 0 1.4121 2e-3l6.0391-6a1.0001 1.0001 0 0 0 0.0039-1.416l-1.3867-1.3868a1.0001 1.0001 0 0 0-1.4141 0l-1.9316 1.9336-0.015625-6.0547a1.0001 1.0001 0 0 0-1-0.99805zm1.0215 9.4648a1.0001 1.0001 0 0 0 1.4258 0.90039l-1.4453 1.4355-1.4668-1.4668a1.0001 1.0001 0 0 0 1.4863-0.86914z" class="colorfff svgShape" color="#000" enable-background="new"/><path fill="#3c3836" d="m10 16.999 1.3859-1.3851 3.6348 3.6349-0.0211-8.4614h2l0.0211 8.4614 3.6344-3.6349 1.3851 1.3851-6.0406 6.0009z" class="color151515 svgShape" enable-background="new"/></svg></svg>