<svg xmlns="http://www.w3.org/2000/svg" xmlns:svgjs="http://svgjs.com/svgjs" xmlns:xlink="http://www.w3.org/1999/xlink" width="288" height="288"><svg xmlns="http://www.w3.org/2000/svg" width="288" height="288" viewBox="0 0 32 32"><defs><filter id="a" width="1.62" height="1.392" x="-.31" y="-.196" color-interpolation-filters="sRGB"><feGaussianBlur stdDeviation="1.55"/></filter></defs><path style="font-feature-settings:normal;font-variant-alternates:normal;font-variant-caps:normal;font-variant-ligatures:normal;font-variant-numeric:normal;font-variant-position:normal;isolation:auto;mix-blend-mode:normal;shape-padding:0;text-decoration-color:#000;text-decoration-line:none;text-decoration-style:solid;text-indent:0;text-orientation:mixed;text-transform:none;white-space:normal" fill="#3c3836" d="m15.004 7.28a1.0001 1.0001 0 0 0-0.9375 0.64062l-5 13a1.0001 1.0001 0 0 0 1.4473 1.2168l2.4863-1.4922v3.6348c0 1.0907 0.9093 2 2 2s2-0.9093 2-2v-3.6348l2.4863 1.4922a1.0001 1.0001 0 0 0 1.4473-1.2168l-5-13a1.0001 1.0001 0 0 0-0.92969-0.64062zm-0.0039 3.7871 3.0234 7.8613-1.5098-0.90625a1.0001 1.0001 0 0 0-1.5137 0.8457 1.0001 1.0001 0 0 0-1.5137-0.8457l-1.5098 0.90625z" class="color000 svgShape" color="#000" filter="url(#a)" opacity=".35"/><path style="font-feature-settings:normal;font-variant-alternates:normal;font-variant-caps:normal;font-variant-ligatures:normal;font-variant-numeric:normal;font-variant-position:normal;isolation:auto;mix-blend-mode:normal;shape-padding:0;text-decoration-color:#000;text-decoration-line:none;text-decoration-style:solid;text-indent:0;text-orientation:mixed;text-transform:none;white-space:normal" fill="#ebdbb2" d="m15.004 6a1.0001 1.0001 0 0 0-0.9375 0.64062l-5 13a1.0001 1.0001 0 0 0 1.4473 1.2168l2.4863-1.4922v3.6348c0 1.0907 0.9093 2 2 2s2-0.9093 2-2v-3.6348l2.4863 1.4922a1.0001 1.0001 0 0 0 1.4473-1.2168l-5-13a1.0001 1.0001 0 0 0-0.92969-0.64062zm-0.003906 3.7871 3.0234 7.8613-1.5098-0.90625a1.0001 1.0001 0 0 0-1.5137 0.8457 1.0001 1.0001 0 0 0-1.5137-0.8457l-1.5098 0.90625z" class="colorfff svgShape" color="#000"/><path fill="#3c3836" d="m15 7-5 13 4-2.4004v5.4004c0 0.554 0.446 1 1 1s1-0.446 1-1v-5.4004l4 2.4004-5-13z" class="color151515 svgShape"/></svg></svg>