<svg xmlns="http://www.w3.org/2000/svg" xmlns:svgjs="http://svgjs.com/svgjs" xmlns:xlink="http://www.w3.org/1999/xlink" width="288" height="288"><svg xmlns="http://www.w3.org/2000/svg" width="288" height="288" viewBox="0 0 32 32"><defs><filter id="a" width="1.455" height="1.508" x="-.228" y="-.254" color-interpolation-filters="sRGB"><feGaussianBlur stdDeviation="1.904"/></filter></defs><g fill="#3c3836" class="color000 svgShape" transform="translate(-74.345 -996.522)"><path style="font-feature-settings:normal;font-variant-alternates:normal;font-variant-caps:normal;font-variant-ligatures:normal;font-variant-numeric:normal;font-variant-position:normal;isolation:auto;mix-blend-mode:normal;shape-padding:0;text-decoration-color:#000;text-decoration-line:none;text-decoration-style:solid;text-indent:0;text-orientation:mixed;text-transform:none;white-space:normal" d="m90.345 1004.5a1.0001 1.0001 0 0 0-1 1v6h-2v-1.5351a1.0001 1.0001 0 0 0-1.0293-1 1.0001 1.0001 0 0 0-0.58398 0.2109l-4.5371 3.5352a1.0001 1.0001 0 0 0 0 1.5781l4.5371 3.5351a1.0001 1.0001 0 0 0 1.6133-0.789v-1.5352h2v6a1.0001 1.0001 0 0 0 1 1h1a1.0001 1.0001 0 0 0 1-1v-6h2v1.5352a1.0001 1.0001 0 0 0 1.6152 0.789l4.5352-3.5351a1.0001 1.0001 0 0 0 0-1.5781l-4.5352-3.5352a1.0001 1.0001 0 0 0-1.6152 0.7891v1.5351h-2v-6a1.0001 1.0001 0 0 0-1-1zm-5 7.5117v0.4864a1.0001 1.0001 0 0 0 1 1 1.0001 1.0001 0 0 0-1 1v0.4863l-1.9082-1.4863zm11 0 1.9102 1.4883-1.9102 1.4883v-0.4883a1.0001 1.0001 0 0 0-1-1 1.0001 1.0001 0 0 0 1-1z" class="color000 svgShape" color="#000" filter="url(#a)" opacity=".35" paint-order="stroke fill markers"/><rect width="1" height="16" x="89.345" y="1004.5" stroke="#ebdbb2" stroke-linecap="round" stroke-linejoin="round" stroke-width="2" class="color151515 svgShape colorStrokefefefe svgStroke" paint-order="stroke fill markers"/><rect width="24" height="24" x="-1024.5" y="78.809" fill="none" opacity=".2" transform="rotate(-90)"/><path style="isolation:auto;mix-blend-mode:normal;text-decoration-color:#000;text-decoration-line:none;text-decoration-style:solid;text-indent:0;text-transform:none;white-space:normal" fill="none" stroke="#ebdbb2" stroke-linecap="round" stroke-linejoin="round" stroke-width="2" d="m85.345 1016v-2.5357l9-2e-4v2.5357l4.5355-3.5356-4.5355-3.5355v2.5356l-9 2e-4v-2.5356l-4.5355 3.5353z" class="colorStrokefff svgStroke" color="#000"/><path style="isolation:auto;mix-blend-mode:normal;text-decoration-color:#000;text-decoration-line:none;text-decoration-style:solid;text-indent:0;text-transform:none;white-space:normal" fill-rule="evenodd" d="m85.345 1016v-2.5357l9-2e-4v2.5357l4.5355-3.5356-4.5355-3.5355v2.5356l-9 2e-4v-2.5356l-4.5355 3.5353z" class="color151515 svgShape" color="#000"/><rect width="1" height="16" x="89.345" y="1004.5" class="color151515 svgShape" paint-order="stroke fill markers"/></g></svg></svg>