<svg xmlns="http://www.w3.org/2000/svg" xmlns:svgjs="http://svgjs.com/svgjs" xmlns:xlink="http://www.w3.org/1999/xlink" width="288" height="288"><svg xmlns="http://www.w3.org/2000/svg" width="288" height="288" viewBox="0 0 32 32"><defs><filter id="a" width="1.292" height="1.294" x="-.146" y="-.147" color-interpolation-filters="sRGB"><feGaussianBlur stdDeviation="1.144"/></filter></defs><g fill="#3c3836" class="color000 svgShape" transform="translate(-122.1 -848.421)"><path style="line-height:normal;-inkscape-font-specification:Sans;text-indent:0;text-align:start;text-decoration-line:none;text-transform:none;block-progression:tb;marker:none" d="m 137.78125,860.81253 c -1.11293,-0.003 -2.09989,0.42584 -2.90625,1.03125 -0.80636,0.60541 -1.45394,1.37934 -1.875,2.1875 -0.40053,0.76876 -0.6222,1.56288 -0.4375,2.40625 -0.31392,-0.0527 -0.6506,0.0555 -0.875,0.28125 l -1.40625,1.40625 c -0.38424,0.37177 -0.38424,1.06573 0,1.4375 -0.044,0.0279 -0.0859,0.0593 -0.125,0.0937 l -5.59375,5.625 c -0.38424,0.37177 -0.94674,2.70918 -0.5625,3.08095 l 1,1 c 0.37177,0.38424 2.75323,-0.13421 3.125,-0.51845 l 5.59375,-5.625 c 0.0344,-0.0391 0.0658,-0.081 0.0937,-0.125 0.37177,0.38424 1.06573,0.38424 1.4375,0 l 1.40625,-1.40625 c 0.22577,-0.2244 0.33398,-0.56108 0.28125,-0.875 1.94915,0.32279 3.90966,-0.69 5,-2.34375 1.10208,-1.67156 1.13643,-4.20732 -0.84375,-6.1875 -1.00706,-1.00706 -2.19957,-1.46548 -3.3125,-1.46875 z" class="color000 svgShape" color="#000" enable-background="accumulate" filter="url(#a)" font-family="Sans" font-weight="400" opacity=".2" overflow="visible"/><path fill="#ebdbb2" d="m 137.78125,859.8125 c -1.11293,-0.003 -2.09989,0.42584 -2.90625,1.03125 -0.80636,0.60541 -1.45394,1.37934 -1.875,2.1875 -0.40053,0.76876 -0.6222,1.56288 -0.4375,2.40625 -0.31392,-0.0527 -0.6506,0.0555 -0.875,0.28125 l -1.40625,1.40625 c -0.38424,0.37177 -0.38424,1.06573 0,1.4375 -0.044,0.0279 -0.0859,0.0593 -0.125,0.0937 l -5.59375,5.625 c -0.13361,0.14699 -0.2219,0.33461 -0.25,0.53125 l -0.28125,1.34375 c -0.0712,0.31836 -0.0312,1.20598 -0.0312,1.20598 l 1,1 c 0,0 0.84233,0.0343 1.15625,-0.0185 l 1.40625,-0.21875 c 0.21105,-0.0306 0.41142,-0.13075 0.5625,-0.28125 l 5.59375,-5.625 c 0.0344,-0.0391 0.0658,-0.081 0.0937,-0.125 0.37177,0.38424 1.06573,0.38424 1.4375,0 l 1.40625,-1.40625 c 0.22577,-0.2244 0.33398,-0.56108 0.28125,-0.875 1.94915,0.32279 3.90966,-0.69 5,-2.34375 1.10208,-1.67156 1.13643,-4.20732 -0.84375,-6.1875 -1.00706,-1.00706 -2.19957,-1.46548 -3.3125,-1.46875 z" color="#000" enable-background="accumulate" font-family="Sans" font-weight="400" overflow="visible" style="line-height:normal;-inkscape-font-specification:Sans;text-indent:0;text-align:start;text-decoration-line:none;text-transform:none;block-progression:tb;marker:none" class="colorfff svgShape"/><path d="m 137.78516,139.43555 c -2.5313,-0.007 -4.65235,3.05288 -4.25391,4.51562 l 0.28125,1.125 c 0.24254,0.97015 -1.40625,0 -1.40625,0 L 131,146.48242 l 0.70508,0.70508 -6.42383,6.45117 -0.28125,1.375 1,1 1.40625,-0.25 6.42383,-6.45117 0.70117,0.70117 1.40625,-1.40625 c 0,0 -0.97015,-1.64879 0,-1.40625 l 1.125,0.28125 c 2.9375,0.53125 6.73988,-3.41637 3.3125,-6.84375 -0.85684,-0.85684 -1.74608,-1.20064 -2.58984,-1.20312 z m -5.36328,8.46875 0.6875,0.6875 -3.73438,3.73437 -1.6875,0.3125 4.73438,-4.73437 z" class="color1a1a1a svgShape" transform="translate(0 721.362)"/></g></svg></svg>