<svg xmlns="http://www.w3.org/2000/svg" xmlns:svgjs="http://svgjs.com/svgjs" xmlns:xlink="http://www.w3.org/1999/xlink" width="288" height="288"><svg xmlns="http://www.w3.org/2000/svg" width="288" height="288" viewBox="0 0 32 32"><defs><filter id="a" width="1.24" height="1.24" x="-.12" y="-.12" color-interpolation-filters="sRGB"><feGaussianBlur stdDeviation=".9"/></filter></defs><g fill="#3c3836" class="color000 svgShape" transform="translate(-.036 -1021.942)"><path style="font-feature-settings:normal;font-variant-alternates:normal;font-variant-caps:normal;font-variant-ligatures:normal;font-variant-numeric:normal;font-variant-position:normal;isolation:auto;mix-blend-mode:normal;shape-padding:0;text-decoration-color:#000;text-decoration-line:none;text-decoration-style:solid;text-indent:0;text-orientation:mixed;text-transform:none;white-space:normal" d="m16.036 1028.9a1.0001 1.0001 0 0 0-1 1v7h-7a1.0001 1.0001 0 0 0-1 1v2a1.0001 1.0001 0 0 0 1 1h7v7a1.0001 1.0001 0 0 0 1 1h2a1.0001 1.0001 0 0 0 1-1v-7h7a1.0001 1.0001 0 0 0 1-1v-2a1.0001 1.0001 0 0 0-1-1h-7v-7a1.0001 1.0001 0 0 0-1-1zm1 9a1.0001 1.0001 0 0 0 1 1 1.0001 1.0001 0 0 0-1 1 1.0001 1.0001 0 0 0-1-1 1.0001 1.0001 0 0 0 1-1z" class="color000 svgShape" color="#000" filter="url(#a)" opacity=".35"/><path fill="none" stroke="#ebdbb2" stroke-linecap="round" stroke-linejoin="round" stroke-width="2" d="m15.036 1028.9v8h-8v2h8v8h2v-8h8v-2h-8v-8z" class="colorStrokefff svgStroke"/><path d="m15.036 1028.9v8h-8v2h8v8h2v-8h8v-2h-8v-8z" class="color000 svgShape"/></g></svg></svg>