<svg xmlns="http://www.w3.org/2000/svg" xmlns:svgjs="http://svgjs.com/svgjs" xmlns:xlink="http://www.w3.org/1999/xlink" width="288" height="288"><svg xmlns="http://www.w3.org/2000/svg" width="288" height="288" viewBox="0 0 32 32"><defs><filter id="b" width="1.444" height="1.444" x="-.222" y="-.222" color-interpolation-filters="sRGB"><feGaussianBlur stdDeviation="1.202"/></filter><filter id="a" width="1.48" height="1.48" x="-.24" y="-.24" color-interpolation-filters="sRGB"><feGaussianBlur stdDeviation="1.601"/></filter></defs><g fill="#3c3836" class="color000 svgShape" transform="translate(0 -1020.4)"><g class="color000 svgShape" transform="translate(0 -.038)"><path style="font-feature-settings:normal;font-variant-alternates:normal;font-variant-caps:normal;font-variant-ligatures:normal;font-variant-numeric:normal;font-variant-position:normal;isolation:auto;mix-blend-mode:normal;shape-padding:0;text-decoration-color:#000;text-decoration-line:none;text-decoration-style:solid;text-indent:0;text-orientation:mixed;text-transform:none;white-space:normal" d="m17 1028.4c-0.90007 0-1.549 0.6784-1.793 1.5078-0.34353-0.2768-0.73951-0.5078-1.207-0.5078-1.0907 0-2 0.9093-2 2v4.4199c-0.30892-0.1966-0.61278-0.4199-1-0.4199-1.0907 0-2 0.9093-2 2v5c0 0.2716 0.054057 0.5369 0.15625 0.7793 0.10327 0.245 0.25593 0.4616 0.43164 0.6367 0.35929 0.3582 0.86342 0.584 1.4121 0.584h2.8789l-0.14062-0.01c0.17273 0.024 0.37991 0.034 0.60742 0l-0.16602 0.014h7.8203c1.3333 0 2.2753-0.8142 2.6445-1.5527 0.36926-0.7425 0.35547-1.4513 0.35547-1.4513v-8c0-1.0907-0.9093-2-2-2-0.38722 0-0.69108 0.2233-1 0.4199v-0.4199c0-1.0907-0.9093-2-2-2-0.46752 0-0.8635 0.231-1.207 0.5078-0.24395-0.8294-0.8929-1.5078-1.793-1.5078z" class="color000 svgShape" color="#000" enable-background="new" filter="url(#a)" opacity=".35"/><path style="font-feature-settings:normal;font-variant-alternates:normal;font-variant-caps:normal;font-variant-ligatures:normal;font-variant-numeric:normal;font-variant-position:normal;isolation:auto;mix-blend-mode:normal;shape-padding:0;text-decoration-color:#000;text-decoration-line:none;text-decoration-style:solid;text-indent:0;text-orientation:mixed;text-transform:none;white-space:normal" fill="#ebdbb2" d="m16 1027.4c-0.90007 0-1.549 0.6784-1.793 1.5078-0.34353-0.2768-0.73951-0.5078-1.207-0.5078-1.0907 0-2 0.9093-2 2v4.4199c-0.30892-0.1966-0.61278-0.4199-1-0.4199-1.0907 0-2 0.9093-2 2v5c0 0.2716 0.054057 0.5369 0.15625 0.7793 0.10327 0.245 0.25593 0.4616 0.43164 0.6367 0.35929 0.3582 0.86342 0.584 1.4121 0.584h2.8789l-0.14062-0.01c0.17273 0.024 0.37991 0.034 0.60742 0l-0.16602 0.014h7.8203c1.3333 0 2.2753-0.8142 2.6445-1.5527 0.36926-0.7425 0.35547-1.4513 0.35547-1.4513v-8c0-1.0907-0.9093-2-2-2-0.38722 0-0.69108 0.2233-1 0.4199v-0.4199c0-1.0907-0.9093-2-2-2-0.46752 0-0.8635 0.231-1.207 0.5078-0.24395-0.8294-0.8929-1.5078-1.793-1.5078zm-3 5a1.0001 1.0001 0 0 0 0.88867 0.9941l1 0.1114a1.0001 1.0001 0 0 0 1.1113-0.9942v0.2207a1.0001 1.0001 0 0 0 0.88867 0.9942l1 0.1113a1.0001 1.0001 0 0 0 1.1113-0.9941v0.2226a1.0001 1.0001 0 0 0 0.88867 0.9942l1 0.1113a1.0001 1.0001 0 0 0 1.1113-0.9942v7.2227s-0.01379 0.2912-0.14453 0.5527-0.1888 0.4473-0.85547 0.4473h-7.8203a1.0001 1.0001 0 0 0-0.16602 0.014c0.02554 0 0.03093-4e-4 0.0059 0a1.0001 1.0001 0 0 0-0.14062-0.01h-2.8789v-5a1.0001 1.0001 0 0 0 1 1h1a1.0001 1.0001 0 0 0 1-1v-3z" class="colorfff svgShape" color="#000" enable-background="new"/><path d="m16 8c-0.554 0-1 0.446-1 1v3.1113l-1-0.11133v-2c0-0.554-0.446-1-1-1s-1 0.446-1 1v6h-1c0-0.554-0.446-1-1-1s-1 0.446-1 1v5c0 0.1385 0.027656 0.27091 0.078125 0.39062 0.050682 0.12022 0.12394 0.2258 0.21484 0.31641 0.18066 0.18008 0.43062 0.29297 0.70703 0.29297h2.8789c0.0989 0.014 0.1998 0.017 0.30078 0h7.8203c2 0 2-2 2-2v-8c0-0.554-0.446-1-1-1s-1 0.446-1 1v0.77734l-1-0.11133v-2.666c0-0.554-0.446-1-1-1s-1 0.446-1 1v2.4434l-1-0.11133v-3.332c0-0.554-0.446-1-1-1z" class="color151515 svgShape" enable-background="new" transform="translate(0 1020.4)"/><path fill="#ebdbb2" d="m11 1034.4v4h1v-4z" class="colorfff svgShape" enable-background="new"/><rect width="24" height="24" x="4" y="1024.4" fill="none" opacity=".2"/></g><path style="block-progression:tb;text-decoration-line:none;text-indent:0;text-transform:none" d="m23.468 1037.4c-3.5898 0-6.5 2.9102-6.5 6.5 0 3.5899 2.9102 6.5 6.5 6.5s6.5-2.9101 6.5-6.5c0-3.5898-2.9102-6.5-6.5-6.5z" class="color000 svgShape" color="#000" filter="url(#b)" opacity=".2"/><circle cx="23.468" cy="1042.9" r="6.5" fill="#ebdbb2" class="colorfff svgShape"/><path fill="#cc241d" d="m20.233 1038.5c-2.261 1.6306-2.9499 4.7656-1.526 7.2318 1.5188 2.6307 4.8825 3.532 7.5131 2.0132 2.6306-1.5188 3.5319-4.8825 2.0131-7.5132-1.5188-2.6306-4.8825-3.5319-7.5131-2.0131-0.16441 0.095-0.33642 0.1725-0.48714 0.2813zm1.4871 1.4508c1.3759-0.7944 3.0505-0.548 4.1458 0.4931l-5.7915 3.3438c-0.35403-1.4692 0.26987-3.0426 1.6458-3.8369zm-0.64577 5.5689 5.7915-3.3437c0.35403 1.4692-0.26987 3.0426-1.6458 3.8369-1.3759 0.7944-3.0505 0.548-4.1458-0.4932z" class="colored1515 svgShape"/></g></svg></svg>