<svg xmlns="http://www.w3.org/2000/svg" xmlns:svgjs="http://svgjs.com/svgjs" xmlns:xlink="http://www.w3.org/1999/xlink" width="288" height="288"><svg xmlns="http://www.w3.org/2000/svg" width="288" height="288" viewBox="0 0 32 32"><defs><filter id="a" width="1.238" height="1.242" x="-.119" y="-.121" color-interpolation-filters="sRGB"><feGaussianBlur stdDeviation=".737"/></filter></defs><g fill="#3c3836" class="color000 svgShape" transform="translate(-256 -296.04)"><path style="isolation:auto;mix-blend-mode:normal;text-decoration-color:#000;text-decoration-line:none;text-decoration-style:solid;text-indent:0;text-transform:none;white-space:normal" d="m167.84 302.63-0.70703 0.70703-2.0918 2.0938 2.6289 2.6289-7.041-0.0176v4l7.0527 0.0176-2.6406 2.6406 2.8008 2.8008 7.4121-7.459z" class="color000 svgShape" color="#000" enable-background="new" filter="url(#a)" opacity=".35" transform="matrix(0 1 1 0 -37.047 144.38)"/><path stroke="#ebdbb2" stroke-linecap="round" stroke-linejoin="round" stroke-width="2" d="m266 311.21 1.3859-1.3851 3.6348 3.6349-0.0211-8.4614h2l0.0211 8.4614 3.6344-3.6349 1.3851 1.3851-6.0406 6.0009z" class="color151515 svgShape colorStrokefff svgStroke" enable-background="new"/><path d="m266 311.21 1.3859-1.3851 3.6348 3.6349-0.0211-8.4614h2l0.0211 8.4614 3.6344-3.6349 1.3851 1.3851-6.0406 6.0009z" class="color151515 svgShape" enable-background="new"/><rect width="24" height="24" x="-324" y="260" fill="none" opacity=".2" transform="rotate(-90)"/></g></svg></svg>