<svg xmlns="http://www.w3.org/2000/svg" xmlns:svgjs="http://svgjs.com/svgjs" xmlns:xlink="http://www.w3.org/1999/xlink" width="288" height="288"><svg xmlns="http://www.w3.org/2000/svg" width="288" height="288" viewBox="0 0 32 32"><defs><filter id="a" width="1.324" height="1.324" x="-.162" y="-.162" color-interpolation-filters="sRGB"><feGaussianBlur stdDeviation="1.215"/></filter><filter id="b" color-interpolation-filters="sRGB"><feGaussianBlur stdDeviation="1.397"/></filter></defs><g fill="#3c3836" class="color000 svgShape" transform="translate(-21.78 -848.318)"><path d="m 35.875,861.375 c -0.22185,0.024 -0.43465,0.12479 -0.59375,0.28125 l -3,3 c -0.82322,0.82322 -2.22028,1.55686 -3.40625,2.03125 -1.18597,0.47439 -2.125,0.71875 -2.125,0.71875 -0.42557,0.10992 -0.75019,0.52922 -0.75,0.96875 l 0,3 c 0,0.66667 -0.45458,2.16769 -0.9375,3.375 -0.48292,1.20731 -0.96875,2.1875 -0.96875,2.1875 -0.29604,0.60868 0.22941,1.44216 0.90625,1.4375 -0.005,0.67684 0.82882,1.20229 1.4375,0.90625 0,0 0.98019,-0.48583 2.1875,-0.96875 1.20731,-0.48292 2.70833,-0.9375 3.375,-0.9375 l 3,0 c 0.43953,1.9e-4 0.85883,-0.32443 0.96875,-0.75 0,0 0.24436,-0.93903 0.71875,-2.125 0.47439,-1.18597 1.20803,-2.58303 2.03125,-3.40625 l 3,-3 c 0.38424,-0.37177 0.38424,-1.06573 0,-1.4375 l -5,-5 C 36.50089,861.43964 36.17926,861.33242 35.875,861.375 Z" color="#000" enable-background="accumulate" filter="url(#a)" font-family="Sans" font-weight="400" opacity=".2" overflow="visible" style="line-height:normal;-inkscape-font-specification:Sans;text-indent:0;text-align:start;text-decoration-line:none;text-transform:none;block-progression:tb;marker:none" class="color000 svgShape"/><path d="m 33.5,869.375 c 0.28799,0 0.5,0.21201 0.5,0.5 0,0.28799 -0.21201,0.5 -0.5,0.5 -0.0483,0 -0.12202,-0.0213 -0.15625,-0.0312 -0.0916,-0.0236 -0.18665,-0.0342 -0.28125,-0.0312 -0.004,-0.10661 -0.0252,-0.21256 -0.0625,-0.3125 -0.0122,-0.0383 0,-0.0367 0,-0.125 0,-0.28799 0.21201,-0.5 0.5,-0.5 z" color="#000" enable-background="accumulate" filter="url(#b)" font-family="Sans" font-weight="400" opacity=".6" overflow="visible" style="line-height:normal;-inkscape-font-specification:Sans;text-indent:0;text-align:start;text-decoration-line:none;text-transform:none;block-progression:tb;marker:none" class="color000 svgShape"/><path fill="#ebdbb2" d="m 35.875,860.375 c -0.22185,0.024 -0.43465,0.12479 -0.59375,0.28125 l -3,3 c -0.82322,0.82322 -2.22028,1.55686 -3.40625,2.03125 -1.18597,0.47439 -2.125,0.71875 -2.125,0.71875 -0.42557,0.10992 -0.75019,0.52922 -0.75,0.96875 l 0,3 c 0,0.66667 -0.45458,2.16769 -0.9375,3.375 -0.48292,1.20731 -0.96875,2.1875 -0.96875,2.1875 -0.29604,0.60868 0.22941,1.44216 0.90625,1.4375 -0.005,0.67684 0.82882,1.20229 1.4375,0.90625 0,0 0.98019,-0.48583 2.1875,-0.96875 1.20731,-0.48292 2.70833,-0.9375 3.375,-0.9375 l 3,0 c 0.43953,1.9e-4 0.85883,-0.32443 0.96875,-0.75 0,0 0.24436,-0.93903 0.71875,-2.125 0.47439,-1.18597 1.20803,-2.58303 2.03125,-3.40625 l 3,-3 c 0.38424,-0.37177 0.38424,-1.06573 0,-1.4375 l -5,-5 C 36.50089,860.43964 36.17926,860.33242 35.875,860.375 Z" color="#000" enable-background="accumulate" font-family="Sans" font-weight="400" overflow="visible" style="line-height:normal;-inkscape-font-specification:Sans;text-indent:0;text-align:start;text-decoration-line:none;text-transform:none;block-progression:tb;marker:none" class="colorfff svgShape"/><path d="m 36,861.375 -3,3 c -2,2 -6,3 -6,3 l 0,3 c 0,2 -2,6 -2,6 l 7.0625,-7.0625 C 32.01678,869.16887 32,869.03378 32,868.875 c 0,-0.82843 0.67157,-1.5 1.5,-1.5 0.82843,0 1.5,0.67157 1.5,1.5 0,0.82843 -0.67157,1.5 -1.5,1.5 -0.14843,0 -0.3021,-0.0223 -0.4375,-0.0625 L 26,877.375 c 0,0 4,-2 6,-2 l 3,0 c 0,0 1,-4 3,-6 l 3,-3 z" class="color1a1a1a svgShape"/></g></svg></svg>