<svg xmlns="http://www.w3.org/2000/svg" xmlns:svgjs="http://svgjs.com/svgjs" xmlns:xlink="http://www.w3.org/1999/xlink" width="288" height="288"><svg xmlns="http://www.w3.org/2000/svg" width="288" height="288" viewBox="0 0 32 32"><defs><filter id="a" width="2.116" height="1.248" x="-.558" y="-.124" color-interpolation-filters="sRGB"><feGaussianBlur stdDeviation=".93"/></filter><filter id="b" width="1.314" height="1.318" x="-.157" y="-.159" color-interpolation-filters="sRGB"><feGaussianBlur stdDeviation=".93"/></filter></defs><path style="font-feature-settings:normal;font-variant-alternates:normal;font-variant-caps:normal;font-variant-ligatures:normal;font-variant-numeric:normal;font-variant-position:normal;isolation:auto;mix-blend-mode:normal;shape-padding:0;text-decoration-color:#000;text-decoration-line:none;text-decoration-style:solid;text-indent:0;text-orientation:mixed;text-transform:none;white-space:normal" fill="#3c3836" d="m5.9991 25.96a1.0001 1.0001 0 0 0 1-1v-16a1.0001 1.0001 0 0 0-1-1h-2a1.0001 1.0001 0 0 0-1 1v16a1.0001 1.0001 0 0 0 1 1z" class="color000 svgShape" color="#000" filter="url(#a)" opacity=".35" paint-order="stroke fill markers"/><path style="font-feature-settings:normal;font-variant-alternates:normal;font-variant-caps:normal;font-variant-ligatures:normal;font-variant-numeric:normal;font-variant-position:normal;isolation:auto;mix-blend-mode:normal;shape-padding:0;text-decoration-color:#000;text-decoration-line:none;text-decoration-style:solid;text-indent:0;text-orientation:mixed;text-transform:none;white-space:normal" fill="#3c3836" d="m22.211 15.96a1.0001 1.0001 0 0 0-1.002-1l-6.0391 0.01563 1.9219-1.9219a1.0001 1.0001 0 0 0 0-1.4141l-1.3848-1.3867a1.0001 1.0001 0 0 0-1.4141 0l-6.002 6a1.0001 1.0001 0 0 0-2e-3 1.4121l6 6.041a1.0001 1.0001 0 0 0 1.418 2e-3l1.3848-1.3848a1.0001 1.0001 0 0 0 0-1.416l-1.9336-1.9316 6.0547-0.01563a1.0001 1.0001 0 0 0 0.99805-1zm-9.4629 1.0215a1.0001 1.0001 0 0 0-0.90234 1.4258l-1.4355-1.4453 1.4648-1.4648a1.0001 1.0001 0 0 0 0.87305 1.4844z" class="color000 svgShape" color="#000" enable-background="new" filter="url(#b)" opacity=".35"/><path style="font-feature-settings:normal;font-variant-alternates:normal;font-variant-caps:normal;font-variant-ligatures:normal;font-variant-numeric:normal;font-variant-position:normal;isolation:auto;mix-blend-mode:normal;shape-padding:0;text-decoration-color:#000;text-decoration-line:none;text-decoration-style:solid;text-indent:0;text-orientation:mixed;text-transform:none;white-space:normal" fill="#ebdbb2" d="m6 25a1.0001 1.0001 0 0 0 1-1v-16a1.0001 1.0001 0 0 0-1-1h-2a1.0001 1.0001 0 0 0-1 1v16a1.0001 1.0001 0 0 0 1 1z" class="colorfff svgShape" color="#000" paint-order="stroke fill markers"/><g fill="#3c3836" class="color151515 svgShape"><rect width="2" height="16" x="-6" y="-24" class="color000 svgShape" paint-order="stroke fill markers" transform="scale(-1)"/><path stroke="#ebdbb2" stroke-linecap="round" stroke-linejoin="round" stroke-width="2" d="m15.001 10 1.3851 1.3859-3.6349 3.6348 8.4614-0.0211v2l-8.4614 0.0211 3.6349 3.6344-1.3851 1.3851-6.0009-6.0406z" class="colorStrokefff svgStroke" enable-background="new"/><path d="m15.001 10 1.3851 1.3859-3.6349 3.6348 8.4614-0.0211v2l-8.4614 0.0211 3.6349 3.6344-1.3851 1.3851-6.0009-6.0406z" class="color000 svgShape" enable-background="new"/></g></svg></svg>