<svg xmlns="http://www.w3.org/2000/svg" xmlns:svgjs="http://svgjs.com/svgjs" xmlns:xlink="http://www.w3.org/1999/xlink" width="288" height="288"><svg xmlns="http://www.w3.org/2000/svg" width="288" height="288" viewBox="0 0 32 32"><defs><filter id="a" width="1.242" height="1.238" x="-.121" y="-.119" color-interpolation-filters="sRGB"><feGaussianBlur stdDeviation=".737"/></filter></defs><g fill="#3c3836" class="color000 svgShape" transform="matrix(-1 0 0 1 183.38 -296.04)"><path style="isolation:auto;mix-blend-mode:normal;text-decoration-color:#000;text-decoration-line:none;text-decoration-style:solid;text-indent:0;text-transform:none;white-space:normal" d="m166.38 304.59-0.70703 0.70703-2.0918 2.0938 2.6289 2.6289-7.041-0.0176v4l7.0527 0.0176-2.6406 2.6406 2.8008 2.8008 7.4121-7.459z" class="color000 svgShape" color="#000" enable-background="new" filter="url(#a)" opacity=".35"/><path stroke="#ebdbb2" stroke-linecap="round" stroke-linejoin="round" stroke-width="2" d="m167.38 305-1.3851 1.3858 3.6349 3.6348-8.4614-0.0211v2l8.4614 0.0211-3.6349 3.6344 1.3851 1.3851 6.0009-6.0406z" class="color151515 svgShape colorStrokefff svgStroke" enable-background="new"/><path d="m167.38 305-1.3851 1.3858 3.6349 3.6348-8.4614-0.0211v2l8.4614 0.0211-3.6349 3.6344 1.3851 1.3851 6.0009-6.0406z" class="color151515 svgShape" enable-background="new"/><rect width="24" height="24" x="-179" y="300" fill="none" opacity=".2" transform="scale(-1 1)"/></g></svg></svg>