<svg xmlns="http://www.w3.org/2000/svg" xmlns:svgjs="http://svgjs.com/svgjs" xmlns:xlink="http://www.w3.org/1999/xlink" width="288" height="288"><svg xmlns="http://www.w3.org/2000/svg" width="288" height="288" viewBox="0 0 32 32"><defs><filter id="a" width="1.257" height="1.257" x="-.128" y="-.128" color-interpolation-filters="sRGB"><feGaussianBlur stdDeviation="1.177"/></filter></defs><g fill="#3c3836" class="color000 svgShape" transform="translate(-320.05 -741.5)"><path d="m 336.1248,747.43738 c -6.07513,0 -11,4.92487 -11,11 0,6.07513 4.92487,11 11,11 6.07513,0 11,-4.92487 11,-11 0,-6.07513 -4.92487,-11 -11,-11 z" color="#000" enable-background="accumulate" filter="url(#a)" font-family="Sans" font-weight="400" opacity=".2" overflow="visible" style="line-height:normal;-inkscape-font-specification:Sans;text-indent:0;text-align:start;text-decoration-line:none;text-transform:none;block-progression:tb;marker:none" class="color000 svgShape"/><circle cx="375" cy="487.362" r="11" fill="#ebdbb2" class="colorfff svgShape" transform="translate(-38.875 270.062)"/><path fill="#cc241d" d="m 331.1248,748.77713 c -4.78293,2.76142 -6.42168,8.87732 -3.66025,13.66025 2.76142,4.78293 8.87732,6.42168 13.66025,3.66025 4.78293,-2.76142 6.42168,-8.87732 3.66025,-13.66025 -2.76142,-4.78293 -8.87732,-6.42168 -13.66025,-3.66025 z m 1,1.73205 c 3.5319,-2.03915 7.9742,-1.07566 10.37408,2.09342 l -13.74816,7.9375 c -1.54456,-3.66289 -0.15782,-7.99178 3.37408,-10.03092 z m -2.37408,11.76298 13.74816,-7.9375 c 1.54456,3.66289 0.15782,7.99178 -3.37408,10.03092 -3.5319,2.03915 -7.9742,1.07566 -10.37408,-2.09342 z" class="colored1515 svgShape"/></g></svg></svg>