<svg xmlns="http://www.w3.org/2000/svg" xmlns:svgjs="http://svgjs.com/svgjs" xmlns:xlink="http://www.w3.org/1999/xlink" width="288" height="288"><svg xmlns="http://www.w3.org/2000/svg" width="288" height="288" viewBox="0 0 32 32"><defs><filter id="a" width="1.244" height="1.236" x="-.122" y="-.118" color-interpolation-filters="sRGB"><feGaussianBlur stdDeviation=".886"/></filter></defs><g fill="#3c3836" class="color000 svgShape" transform="translate(-46 -155.94)"><path style="isolation:auto;mix-blend-mode:normal;text-decoration-color:#000;text-decoration-line:none;text-decoration-style:solid;text-indent:0;text-transform:none;white-space:normal" d="m63 162c-1.0907 0-2 0.9093-2 2v0.41992c-0.30892-0.19664-0.61278-0.41992-1-0.41992-1.0907 0-2 0.9093-2 2v7.1719l-0.57617-0.57618c-0.37625-0.38678-0.89406-0.60543-1.4336-0.60547h-2e-3c-0.63753 1e-3 -1.2385 0.30851-1.6133 0.82422l0.10156-0.11914-0.59766 0.59766c-0.39112 0.3913-0.39022 1.0258 2e-3 1.416l0.6582 0.65625c0.01883 0.0199 0.03653 0.0391 0.05664 0.0586l3.6973 3.6973 0.2793 0.2793c0.45724 0.47539 1.1228 0.69542 1.7734 0.58594l-0.16601 0.01367h8.8203c1.0912 0 2.0447-0.90241 2-2.0391v-10.961c0-1.0907-0.9093-2-2-2-0.38722 0-0.69108 0.22328-1 0.41992v-0.41992c0-1.0907-0.9093-2-2-2-0.46752 0-0.8635 0.231-1.207 0.50781-0.16915-0.57508-0.53518-0.97235-1.0801-1.209-0.18798-0.19113-0.44481-0.29879-0.71289-0.29883z" class="color000 svgShape" color="#000" enable-background="new" filter="url(#a)" opacity=".35"/><path fill="none" stroke="#ebdbb2" stroke-linecap="round" stroke-linejoin="round" stroke-width="2" d="m62 162c-0.554 0-1 0.446-1 1v6h-1v-4c0-0.554-0.446-1-1-1s-1 0.446-1 1v9.5859l-2.293-2.293c-0.18827-0.19354-0.4468-0.30272-0.7168-0.30274-0.31924 7.5e-4 -0.61895 0.15387-0.80664 0.41211l-0.59765 0.59766 0.6582 0.65625c0.0157 0.0175 0.0319 0.0344 0.0488 0.0508l4 4c0.22904 0.23813 0.56089 0.3478 0.88672 0.29297h7.8203c2 0 2-2 2-2v-10c0-0.554-0.446-1-1-1s-1 0.446-1 1v3h-1v-5c0-0.554-0.446-1-1-1s-1 0.446-1 1v5h-1v-6c0-0.554-0.446-1-1-1z" class="colorStrokefff svgStroke" enable-background="new"/><path d="m62 162c-0.554 0-1 0.446-1 1v6h-1v-4c0-0.554-0.446-1-1-1s-1 0.446-1 1v9.5859l-2.293-2.293c-0.18827-0.19354-0.4468-0.30272-0.7168-0.30274-0.31924 7.5e-4 -0.61895 0.15387-0.80664 0.41211l-0.59765 0.59766 0.6582 0.65625c0.0157 0.0175 0.0319 0.0344 0.0488 0.0508l4 4c0.22904 0.23813 0.56089 0.3478 0.88672 0.29297h7.8203c2 0 2-2 2-2v-10c0-0.554-0.446-1-1-1s-1 0.446-1 1v3h-1v-5c0-0.554-0.446-1-1-1s-1 0.446-1 1v5h-1v-6c0-0.554-0.446-1-1-1z" class="color151515 svgShape" enable-background="new"/><rect width="24" height="24" x="50" y="160" fill="none" opacity=".2"/></g></svg></svg>