<svg xmlns="http://www.w3.org/2000/svg" xmlns:svgjs="http://svgjs.com/svgjs" xmlns:xlink="http://www.w3.org/1999/xlink" width="288" height="288"><svg xmlns="http://www.w3.org/2000/svg" width="288" height="288" viewBox="0 0 32 32"><defs><filter id="a" width="1.329" height="1.328" x="-.165" y="-.164" color-interpolation-filters="sRGB"><feGaussianBlur stdDeviation="1.218"/></filter></defs><g fill="#3c3836" class="color000 svgShape" transform="translate(-71.988 -848.293)"><path d="m 260.84375,498.5625 c -0.55706,0.0984 -0.9489,0.74098 -0.78125,1.28125 l 1.0625,3.1875 c 0.0401,0.14994 0.11563,0.29026 0.21875,0.40625 l 12.59375,12.625 c 0.1591,0.15646 0.3719,0.25726 0.59375,0.28125 0.30426,0.0426 0.62589,-0.0646 0.84375,-0.28125 l 2.125,-2.125 c 0.38424,-0.37177 0.38424,-1.06573 0,-1.4375 l -12.59375,-12.625 c -0.11599,-0.10312 -0.25631,-0.17868 -0.40625,-0.21875 l -3.1875,-1.0625 c -0.15085,-0.0473 -0.31297,-0.058 -0.46875,-0.0312 z" color="#000" enable-background="accumulate" filter="url(#a)" font-family="Sans" font-weight="400" opacity=".2" overflow="visible" transform="matrix(1 0 0 -1 -186 1377.901)" style="line-height:normal;-inkscape-font-specification:Sans;text-indent:0;text-align:start;text-decoration-line:none;text-transform:none;block-progression:tb;marker:none" class="color000 svgShape"/><path fill="#ebdbb2" d="m 88.53125,860.56252 a 1.0001,1.0001 0 0 0 -0.59375,0.28125 l -12.59375,12.625 a 1.0001,1.0001 0 0 0 -0.21875,0.40625 l -1.0625,3.1875 a 1.0001,1.0001 0 0 0 1.25,1.25 l 3.1875,-1.0625 a 1.0001,1.0001 0 0 0 0.40625,-0.21875 L 91.5,864.40627 a 1.0001,1.0001 0 0 0 0,-1.4375 l -2.125,-2.125 a 1.0001,1.0001 0 0 0 -0.84375,-0.28125 z" color="#000" enable-background="accumulate" font-family="Sans" font-weight="400" overflow="visible" style="line-height:normal;-inkscape-font-specification:Sans;text-indent:0;text-align:start;text-decoration-line:none;text-transform:none;block-progression:tb;marker:none" class="colorfff svgShape"/><path d="m 88.65625,861.56252 -12.59375,12.625 -1.0625,3.1875 3.1875,-1.0625 12.59375,-12.625 z m 0.0312,1.4375 0.6875,0.6875 -1.3125,1.3125 -0.6875,-0.6875 z" class="color000 svgShape"/></g></svg></svg>