<svg xmlns="http://www.w3.org/2000/svg" xmlns:svgjs="http://svgjs.com/svgjs" xmlns:xlink="http://www.w3.org/1999/xlink" width="288" height="288"><svg xmlns="http://www.w3.org/2000/svg" width="288" height="288" viewBox="0 0 32 32"><defs><filter id="a" width="1.241" height="1.239" x="-.121" y="-.119" color-interpolation-filters="sRGB"><feGaussianBlur stdDeviation=".846"/></filter></defs><g fill="#3c3836" class="color000 svgShape" transform="translate(-2 -1)"><rect width="24" height="24" x="6" y="5" fill="none" opacity=".2"/><g class="color000 svgShape" transform="translate(-185 -155)"><path style="isolation:auto;mix-blend-mode:normal;text-decoration-color:#000;text-decoration-line:none;text-decoration-style:solid;text-indent:0;text-transform:none;white-space:normal" d="m201 163c-1.0907 0-2 0.9093-2 2v8.1719l-0.57617-0.57618c-0.37625-0.38678-0.89406-0.60543-1.4336-0.60547h-2e-3c-0.63753 1e-3 -1.2385 0.30851-1.6133 0.82422l0.10156-0.11914-1.3066 1.3066 1.3672 1.3633-0.0371-0.041c0.0303 0.0338 0.0616 0.0665 0.0957 0.0996l3.9766 3.9766c0.45729 0.47544 1.1229 0.69541 1.7734 0.58594l-0.16597 0.01367h6.8203c1.0907 0 3-1.9093 3-3v-5.0371l-2e-3 -0.0371s-0.0502-0.44393-0.29493-0.83594c-0.24475-0.392-0.71237-0.81428-1.3867-1.0391l-6.1542-2.0508h-0.16211v-3c0-1.0907-0.9093-2-2-2z" class="color000 svgShape" color="#000" enable-background="new" filter="url(#a)" opacity=".35"/><path fill="none" stroke="#ebdbb2" stroke-width="2" d="m200 163c-0.554 0-1 0.446-1 1v10.586l-2.293-2.293c-0.18827-0.19354-0.4468-0.30272-0.7168-0.30274-0.31924 7.5e-4 -0.61895 0.15387-0.80664 0.41211l-0.59765 0.59766 0.6582 0.65625c0.0157 0.0175 0.0319 0.0344 0.0488 0.0508l4 4c0.22904 0.23813 0.56092 0.34778 0.88675 0.29295h6.8203c2 0 2-2 2-2v-5s-0.0513-0.68377-1-1l-6-2h-1v-4c0-0.554-0.446-1-1-1z" class="colorStrokefff svgStroke" enable-background="new"/><path d="m200 163c-0.554 0-1 0.446-1 1v10.586l-2.293-2.293c-0.18827-0.19354-0.4468-0.30272-0.7168-0.30274-0.31924 7.5e-4 -0.61895 0.15387-0.80664 0.41211l-0.59765 0.59766 0.6582 0.65625c0.0157 0.0175 0.0319 0.0344 0.0488 0.0508l4 4c0.22904 0.23813 0.56092 0.34778 0.88675 0.29295h6.8203c2 0 2-2 2-2v-5s-0.0574-0.66615-1-1l-6-2h-1v-4c0-0.554-0.446-1-1-1z" class="color151515 svgShape" enable-background="new"/></g></g></svg></svg>