<svg xmlns="http://www.w3.org/2000/svg" xmlns:svgjs="http://svgjs.com/svgjs" xmlns:xlink="http://www.w3.org/1999/xlink" width="288" height="288"><svg xmlns="http://www.w3.org/2000/svg" width="288" height="288" viewBox="0 0 32 32"><defs><linearGradient id="c" x1="17.871" x2="17.871" y1="7.668" y2="17.893" gradientTransform="matrix(.60764 0 0 .58122 11.1 1033.5)" gradientUnits="userSpaceOnUse"><stop class="stopColorFBB114 svgShape" offset="0" stop-color="#fbb114"/><stop class="stopColorFF9508 svgShape" offset="1" stop-color="#ff9508"/></linearGradient><linearGradient id="d" x1="23.954" x2="23.954" y1="8.61" y2="19.256" gradientTransform="matrix(.5582 0 0 .6327 11.1 1033.5)" gradientUnits="userSpaceOnUse"><stop class="stopColorFF645D svgShape" offset="0" stop-color="#ff645d"/><stop class="stopColorFF4332 svgShape" offset="1" stop-color="#ff4332"/></linearGradient><linearGradient id="e" x1="20.127" x2="20.127" y1="19.205" y2="29.033" gradientTransform="matrix(.65219 0 0 .54152 11.1 1033.5)" gradientUnits="userSpaceOnUse"><stop class="stopColorCA70E1 svgShape" offset="0" stop-color="#ca70e1"/><stop class="stopColorB452CB svgShape" offset="1" stop-color="#b452cb"/></linearGradient><linearGradient id="f" x1="16.36" x2="16.36" y1="17.893" y2="28.118" gradientTransform="matrix(.60764 0 0 .58122 11.1 1033.5)" gradientUnits="userSpaceOnUse"><stop class="stopColor14ADF6 svgShape" offset="0" stop-color="#14adf6"/><stop class="stopColor1191F4 svgShape" offset="1" stop-color="#1191f4"/></linearGradient><linearGradient id="g" x1="13.308" x2="13.308" y1="13.619" y2="24.265" gradientTransform="matrix(.5582 0 0 .6327 11.1 1033.5)" gradientUnits="userSpaceOnUse"><stop class="stopColor52CF30 svgShape" offset="0" stop-color="#52cf30"/><stop class="stopColor3BBD1C svgShape" offset="1" stop-color="#3bbd1c"/></linearGradient><linearGradient id="h" x1="11.766" x2="11.766" y1="9.377" y2="19.205" gradientTransform="matrix(.65219 0 0 .54152 11.1 1033.5)" gradientUnits="userSpaceOnUse"><stop class="stopColorFFD305 svgShape" offset="0" stop-color="#ffd305"/><stop class="stopColorFDCF01 svgShape" offset="1" stop-color="#fdcf01"/></linearGradient><filter id="a" width="1.324" height="1.191" x="-.162" y="-.095" color-interpolation-filters="sRGB"><feGaussianBlur stdDeviation=".628"/></filter><filter id="b" width="1.24" height="1.24" x="-.12" y="-.12" color-interpolation-filters="sRGB"><feGaussianBlur stdDeviation=".65"/></filter></defs><g fill="#3c3836" class="color000 svgShape" transform="translate(0 -1020.4)"><g class="color000 svgShape" transform="translate(-.936 1021.4)"><path style="font-feature-settings:normal;font-variant-alternates:normal;font-variant-caps:normal;font-variant-ligatures:normal;font-variant-numeric:normal;font-variant-position:normal;isolation:auto;mix-blend-mode:normal;shape-padding:0;text-decoration-color:#000;text-decoration-line:none;text-decoration-style:solid;text-indent:0;text-orientation:mixed;text-transform:none;white-space:normal" fill-rule="evenodd" d="m7.9844 4a1.0001 1.0001 0 0 0-0.98438 1v14a1.0001 1.0001 0 0 0 1.7734 0.63477l2.0742-2.5293 1.4219 3.4297c0.2179 0.54745 0.67032 0.98123 1.1719 1.1582 0.50156 0.17697 1.0137 0.13324 1.4531-0.04883 0.43939-0.18207 0.83312-0.51233 1.0625-0.99219s0.24099-1.1073 0.0078-1.6484l-1.5312-3.6953 2.8789 0.0059a1.0001 1.0001 0 0 0 0.70898-1.707l-9.3144-9.3145a1.0001 1.0001 0 0 0-0.72266-0.29297zm1.0156 3.4141 5.8945 5.8945-1.957-0.0039a1.0001 1.0001 0 0 0-0.92578 1.3828l0.04492 0.10938a1.0001 1.0001 0 0 0-1.6973-0.25195l-1.3594 1.6582z" class="color000 svgShape" color="#000" filter="url(#a)" opacity=".35"/><path fill="none" stroke="#ebdbb2" stroke-linecap="round" stroke-linejoin="round" stroke-width="2" d="m6.9356 4v14l3.1328-3.8203 2.0664 4.9863a1.0001 1.0001 0 1 0 1.8477-0.76562l-2.1113-5.0957 4.3789 0.0098z" class="colorStrokefff svgStroke"/><path fill-rule="evenodd" d="m6.9356 4v14l3.1328-3.8203 2.0664 4.9863a1.0001 1.0001 0 1 0 1.8477-0.76562l-2.1113-5.0957 4.3789 0.0098z" class="color151515 svgShape"/><rect width="24" height="24" fill="none" opacity=".2"/></g><circle cx="23.5" cy="1043.9" r="6.5" class="color000 svgShape" filter="url(#b)" opacity=".35" paint-order="stroke fill markers"/><circle cx="23" cy="1043.4" r="6.5" fill="#ebdbb2" class="colorfff svgShape" paint-order="stroke fill markers"/><g fill-rule="evenodd" class="color000 svgShape" transform="rotate(15 62.37 1053.519) scale(1.00961)"><path fill="url(#c)" d="m24.786 1038.9c0.18013 0.4263 0.27974 0.8949 0.27974 1.3868 0 1.9693-1.5964 3.5657-3.5657 3.5657 0.98464-1.7054 0.40031-3.8862-1.3051-4.8708-0.42636-0.2462-0.88243-0.3943-1.3421-0.4513 0.79714-0.3973 1.6961-0.6207 2.6472-0.6207 1.215 0 2.3448 0.3646 3.286 0.9903z"/><path fill="url(#d)" d="m27.432 1044.2c-0.27904 0.3688-0.63492 0.6892-1.0607 0.935-1.7055 0.9846-3.8862 0.4003-4.8709-1.3052 1.9693 0 3.5657-1.5964 3.5657-3.5657 0-0.4919-0.0996-0.9605-0.27974-1.3868 1.6014 1.0647 2.6569 2.8853 2.6569 4.9525 0 0.1243-0.0041 0.2477-0.01129 0.3702z"/><path fill="url(#e)" d="m24.147 1049.2c-0.45965-0.057-0.91572-0.2052-1.3421-0.4513-1.7055-0.9847-2.2898-3.1654-1.3051-4.8709 0.98464 1.7055 3.1654 2.2898 4.8709 1.3052 0.42574-0.2458 0.78162-0.5662 1.0607-0.935-0.13353 2.173-1.4349 4.0303-3.2843 4.952z"/><path fill="url(#f)" d="m18.214 1048.8c-0.18013-0.4263-0.27973-0.895-0.27973-1.3869 0-1.9692 1.5964-3.5657 3.5657-3.5657-0.98465 1.7055-0.40032 3.8862 1.3051 4.8709 0.42636 0.2461 0.88243 0.3942 1.3421 0.4513-0.79713 0.3972-1.6961 0.6207-2.6472 0.6207-1.215 0-2.3448-0.3646-3.286-0.9903z"/><path fill="url(#g)" d="m15.569 1043.5c0.27904-0.3689 0.63492-0.6892 1.0607-0.935 1.7055-0.9847 3.8862-0.4003 4.8709 1.3051-1.9693 0-3.5657 1.5965-3.5657 3.5657 0 0.4919 0.0996 0.9606 0.27973 1.3869-1.6014-1.0647-2.6569-2.8854-2.6569-4.9526 0-0.1243 0.0041-0.2477 0.01129-0.3701z"/><path fill="url(#h)" d="m18.853 1038.5c0.45966 0.057 0.91573 0.2051 1.3421 0.4513 1.7055 0.9846 2.2898 3.1654 1.3051 4.8708-0.98465-1.7054-3.1654-2.2898-4.8709-1.3051-0.42574 0.2458-0.78162 0.5661-1.0607 0.935 0.13353-2.1731 1.4349-4.0303 3.2843-4.952z"/></g></g></svg></svg>